<svg version="1.1" id="Layer_1" xmlns="http://www.w3.org/2000/svg" xmlns:xlink="http://www.w3.org/1999/xlink" x="0px" y="0px"
	 width="100%" viewBox="0 0 812 585" enable-background="new 0 0 812 585" xml:space="preserve">
<path fill="#FFFFFF" opacity="1.000000" stroke="none" 
	d="
M435.000000,586.000000 
	C290.025848,586.000000 145.551682,586.000000 1.038758,586.000000 
	C1.038758,391.060699 1.038758,196.121414 1.038758,1.091061 
	C271.557526,1.091061 542.115112,1.091061 812.836304,1.091061 
	C812.836304,195.999893 812.836304,390.999939 812.836304,586.000000 
	C687.121338,586.000000 561.310669,586.000000 435.000000,586.000000 
M449.905212,150.142044 
	C433.915894,190.866974 417.896057,231.579987 401.987366,272.336395 
	C400.496399,276.156128 398.792206,277.613983 394.304932,276.663116 
	C379.169922,273.456116 363.857361,273.309143 348.648621,276.179047 
	C344.324738,276.994934 342.289337,275.772064 340.722107,271.898102 
	C326.630127,237.064499 312.434875,202.272644 298.252319,167.475708 
	C288.274384,142.994720 278.299255,118.512489 268.256439,94.058098 
	C265.463654,87.257675 265.355072,87.302269 257.124420,88.421654 
	C295.254303,181.908585 333.340088,275.287323 371.425873,368.666077 
	C371.896088,368.553650 372.366302,368.441193 372.836517,368.328766 
	C409.475800,275.110992 446.115112,181.893234 483.009796,88.025734 
	C478.602814,88.262230 474.795990,86.315025 472.853210,91.353691 
	C465.378448,110.739685 457.747955,130.065628 449.905212,150.142044 
M538.289856,491.658508 
	C539.006531,490.187225 540.283020,488.738068 540.342102,487.240845 
	C540.585022,481.085663 540.580688,474.912628 540.416870,468.752777 
	C540.329956,465.484314 541.594849,464.292908 544.801941,464.415588 
	C549.293945,464.587402 553.818909,464.218018 558.283813,464.606812 
	C559.875244,464.745422 561.954102,466.065674 562.746155,467.453796 
	C566.532898,474.090088 570.167542,480.834351 573.424561,487.743683 
	C575.345093,491.818024 577.809265,492.579468 582.231812,490.674011 
	C577.594971,481.777252 573.105652,473.163605 568.541870,464.406982 
	C569.477295,463.864807 570.002075,463.473907 570.588623,463.233582 
	C580.990051,458.971100 584.811523,451.649994 583.160950,439.105408 
	C581.874695,429.330048 576.321716,423.775482 565.367310,422.875977 
	C556.094666,422.114563 546.728943,422.335052 537.409912,422.478027 
	C536.217773,422.496338 534.046387,424.658020 534.034729,425.843506 
	C533.830322,446.667267 533.916199,467.493744 533.864868,488.319427 
	C533.858276,491.002197 535.077332,491.918945 538.289856,491.658508 
M238.296478,440.354675 
	C238.786270,448.958618 243.707794,454.037231 251.534515,456.549774 
	C258.185913,458.684967 265.000671,460.319214 271.623993,462.531708 
	C277.075623,464.352844 280.230560,469.378296 279.963196,474.810242 
	C279.698547,480.187073 276.484039,484.785339 270.645508,485.630524 
	C264.700165,486.491180 258.470093,486.387970 252.489822,485.667786 
	C248.172745,485.147949 244.611252,482.522766 243.190475,477.645447 
	C242.865555,476.529968 240.176361,476.103271 238.575272,475.359589 
	C238.007339,476.823425 236.730194,478.432343 236.994781,479.725891 
	C238.114929,485.202301 241.763733,488.757904 246.887619,490.723083 
	C254.744049,493.736328 262.893829,493.888885 270.985352,492.200104 
	C280.311646,490.253632 285.899811,484.200989 286.450928,476.270172 
	C287.139954,466.355103 283.039642,460.159607 273.251404,456.485352 
	C271.080505,455.670471 268.810547,455.121887 266.594940,454.422974 
	C261.372528,452.775513 256.023438,451.431793 250.977097,449.354370 
	C246.812973,447.640137 244.952988,443.801849 244.724365,439.354828 
	C244.510422,435.193268 246.136307,431.879730 249.883469,429.841034 
	C259.758392,424.468506 271.718109,427.706268 277.973053,437.100769 
	C278.687195,438.173340 281.064880,438.440979 282.666595,438.429749 
	C283.128357,438.426483 284.165405,436.014801 283.927917,434.928223 
	C282.695312,429.288574 279.058594,425.516998 273.690948,423.622406 
	C266.449707,421.066589 259.017975,420.747559 251.567535,422.670227 
	C242.719986,424.953461 238.657806,430.168457 238.296478,440.354675 
M613.742981,464.643280 
	C613.747925,457.978821 613.747864,457.960449 620.276062,457.944824 
	C628.438721,457.925262 636.601440,457.940186 644.764160,457.939301 
	C646.928406,457.939056 649.214905,458.294556 649.308472,454.947784 
	C649.406860,451.432495 646.948059,451.950073 644.863159,451.941376 
	C636.034241,451.904480 627.202820,451.807098 618.377258,451.981567 
	C615.000427,452.048309 613.496826,451.087280 613.670349,447.486115 
	C613.902710,442.666229 613.897644,437.819397 613.679260,432.998444 
	C613.519775,429.475159 614.905823,428.375854 618.325684,428.436646 
	C628.151062,428.611237 637.985291,428.661224 647.805298,428.382019 
	C649.327515,428.338745 650.793274,426.308411 652.285095,425.196991 
	C650.860413,424.227112 649.450562,422.441772 648.008728,422.415558 
	C635.852112,422.194489 623.688721,422.378876 611.529480,422.247711 
	C607.890869,422.208466 607.005859,423.893646 607.018250,427.136200 
	C607.094604,447.126129 607.101868,467.116638 607.028992,487.106537 
	C607.016846,490.437653 608.041443,491.827209 611.639648,491.771301 
	C623.630798,491.585022 635.626770,491.705933 647.620911,491.721497 
	C649.834106,491.724365 652.152527,491.968536 652.252930,488.716614 
	C652.366699,485.030792 649.766296,485.509766 647.426941,485.512421 
	C637.931580,485.523285 628.432068,485.350983 618.942688,485.588379 
	C614.751221,485.693298 613.383850,484.196136 613.648865,480.097992 
	C613.960022,475.286987 613.725281,470.440704 613.742981,464.643280 
M201.480301,422.319336 
	C192.316940,422.312500 183.151886,422.405212 173.991058,422.249268 
	C170.386200,422.187958 168.984146,423.420258 169.009521,427.159302 
	C169.145126,447.150909 169.156387,467.144348 169.022552,487.135895 
	C168.998810,490.683533 170.279800,491.798645 173.658432,491.764435 
	C185.486267,491.644592 197.315933,491.700623 209.144913,491.702057 
	C211.579269,491.702332 213.960983,491.789093 213.912033,488.256622 
	C213.862244,484.664612 211.249268,485.523834 209.253448,485.516602 
	C199.424133,485.481079 189.593292,485.440735 179.765732,485.586914 
	C176.555847,485.634644 175.264862,484.484344 175.351212,481.246582 
	C175.502228,475.585846 175.716934,469.896027 175.315109,464.260498 
	C174.961121,459.295746 176.368240,457.548340 181.627945,457.803009 
	C191.226517,458.267792 200.863708,457.935120 211.041153,457.935120 
	C210.925552,455.581696 210.842819,453.897491 210.746445,451.935638 
	C200.042969,451.935638 189.902069,451.855652 179.763748,451.982300 
	C176.545853,452.022522 175.230865,450.866333 175.353592,447.615448 
	C175.516907,443.289856 175.675095,438.930267 175.319733,434.627869 
	C174.926895,429.871948 176.519470,428.169983 181.430878,428.356995 
	C190.913834,428.718140 200.422684,428.610596 209.911911,428.360046 
	C211.264938,428.324280 212.568222,426.404114 213.894516,425.356049 
	C212.585007,424.331757 211.395691,422.711884 209.938812,422.417847 
	C207.539963,421.933716 204.967926,422.307617 201.480301,422.319336 
M502.810272,484.880646 
	C504.288818,488.289703 504.451019,493.333344 511.059601,490.966461 
	C510.797974,489.588287 510.738281,488.117218 510.238586,486.815002 
	C502.496704,466.639374 494.763672,446.459503 486.793640,426.373810 
	C486.118073,424.671204 483.966553,422.967834 482.156006,422.434113 
	C479.151184,421.548370 477.998352,423.919037 477.016510,426.522522 
	C471.321259,441.624573 465.452698,456.661194 459.667450,471.729462 
	C457.247101,478.033417 454.887238,484.360626 452.483154,490.721619 
	C458.021851,492.255585 458.504303,492.052155 460.125061,487.827820 
	C461.197906,485.031647 462.315582,482.249359 463.276489,479.414490 
	C464.200592,476.688354 465.813446,475.544983 468.838013,475.636536 
	C475.830475,475.848145 482.833832,475.699738 489.832794,475.694763 
	C499.054108,475.688232 499.054108,475.687164 502.810272,484.880646 
M122.961639,468.234314 
	C121.216644,472.804810 119.471649,477.375305 117.311302,483.033722 
	C116.249908,480.654297 115.608955,479.377747 115.099388,478.050751 
	C108.435120,460.696045 101.732857,443.355469 95.185318,425.956696 
	C93.823219,422.337158 91.820053,421.460266 87.988914,423.209534 
	C88.452347,424.881104 88.756752,426.470123 89.325981,427.957855 
	C96.808792,447.513580 104.307335,467.063354 111.867989,486.589081 
	C112.780014,488.944427 113.151947,491.820038 116.910812,491.802551 
	C120.662857,491.785095 121.572624,489.130798 122.583290,486.522980 
	C129.189804,469.476013 135.775803,452.420807 142.285339,435.336639 
	C143.825348,431.294861 145.047989,427.132141 146.416626,423.025055 
	C145.779739,422.526001 145.142853,422.026947 144.505966,421.527893 
	C142.742432,422.883087 140.073898,423.874176 139.358978,425.651215 
	C133.779434,439.519745 128.575394,453.539337 122.961639,468.234314 
M412.669586,428.500366 
	C418.622345,428.500366 424.575073,428.500366 430.815460,428.500366 
	C431.029266,426.406464 431.190247,424.830200 431.401215,422.764099 
	C415.114075,422.764099 399.260040,422.764099 383.479736,422.764099 
	C381.869293,427.100403 383.504150,428.415070 387.570190,428.252380 
	C392.833160,428.041748 398.110931,428.200958 402.876862,428.200958 
	C403.499634,429.515411 403.760895,429.810211 403.761963,430.105896 
	C403.825378,447.595551 403.936066,465.085999 403.745880,482.573181 
	C403.734070,483.658844 401.420502,485.504822 400.042175,485.642914 
	C395.918396,486.056061 391.717651,485.973663 387.564850,485.751038 
	C383.045776,485.508820 381.994446,487.333130 383.542389,491.652069 
	C397.987762,491.652069 412.289978,491.652924 426.592224,491.651062 
	C428.728180,491.650787 431.101532,492.166718 431.164368,488.731781 
	C431.233734,484.941956 428.535614,485.569305 426.302521,485.545410 
	C421.052704,485.489319 415.801910,485.527466 410.878326,485.527466 
	C410.438232,484.404083 410.215149,484.099457 410.214172,483.794067 
	C410.158661,466.470093 410.092499,449.145966 410.152618,431.822266 
	C410.156342,430.744568 411.165039,429.670349 412.669586,428.500366 
M351.391418,422.281525 
	C338.081696,422.273560 324.770020,422.158813 311.464935,422.403473 
	C309.937897,422.431549 307.430573,424.252411 307.144348,425.613556 
	C306.470490,428.817657 309.268890,428.571899 311.460907,428.552765 
	C315.453369,428.517914 319.446136,428.507324 323.438751,428.498749 
	C330.224579,428.484192 330.238770,428.488159 330.242401,435.243195 
	C330.251587,452.379486 330.275604,469.515900 330.222168,486.652008 
	C330.212067,489.886841 330.652130,492.782715 334.758850,491.365875 
	C335.899048,490.972504 336.839691,488.264709 336.853638,486.610168 
	C337.000977,469.142395 336.942047,451.672852 336.940033,434.203796 
	C336.939850,432.443817 336.940002,430.683807 336.940002,428.321167 
	C345.132904,428.321167 352.554382,428.321167 359.786316,428.321167 
	C361.228912,423.900421 360.082642,421.936127 355.840759,422.249817 
	C354.682068,422.335480 353.512482,422.273499 351.391418,422.281525 
M627.468506,415.523010 
	C629.190369,415.596161 632.053772,416.322906 632.447388,415.635529 
	C634.857361,411.426178 636.707642,406.896423 638.744446,402.473419 
	C638.202454,401.978912 637.660461,401.484375 637.118530,400.989838 
	C635.555847,402.145020 633.482300,402.985413 632.536316,404.520630 
	C630.544189,407.753723 629.143188,411.351074 627.468506,415.523010 
z"/>
<path fill="#DE6062" opacity="1.000000" stroke="none" 
	d="
M450.040375,149.778015 
	C457.747955,130.065628 465.378448,110.739685 472.853210,91.353691 
	C474.795990,86.315025 478.602814,88.262230 483.009796,88.025734 
	C446.115112,181.893234 409.475800,275.110992 372.836517,368.328766 
	C372.366302,368.441193 371.896088,368.553650 371.425873,368.666077 
	C333.340088,275.287323 295.254303,181.908585 257.124420,88.421654 
	C265.355072,87.302269 265.463654,87.257675 268.256439,94.058098 
	C278.299255,118.512489 288.274384,142.994720 298.252319,167.475708 
	C312.434875,202.272644 326.630127,237.064499 340.722107,271.898102 
	C342.289337,275.772064 344.324738,276.994934 348.648621,276.179047 
	C363.857361,273.309143 379.169922,273.456116 394.304932,276.663116 
	C398.792206,277.613983 400.496399,276.156128 401.987366,272.336395 
	C417.896057,231.579987 433.915894,190.866974 450.040375,149.778015 
M381.223907,324.657379 
	C386.304108,311.748718 391.384277,298.840057 396.459839,285.943115 
	C385.424164,281.507202 359.751007,281.083984 346.143829,285.193176 
	C354.544434,305.830292 362.909180,326.379333 371.877075,348.410065 
	C375.284515,339.746674 378.110748,332.560944 381.223907,324.657379 
z"/>
<path fill="#D86263" opacity="1.000000" stroke="none" 
	d="
M537.914795,491.680908 
	C535.077332,491.918945 533.858276,491.002197 533.864868,488.319427 
	C533.916199,467.493744 533.830322,446.667267 534.034729,425.843506 
	C534.046387,424.658020 536.217773,422.496338 537.409912,422.478027 
	C546.728943,422.335052 556.094666,422.114563 565.367310,422.875977 
	C576.321716,423.775482 581.874695,429.330048 583.160950,439.105408 
	C584.811523,451.649994 580.990051,458.971100 570.588623,463.233582 
	C570.002075,463.473907 569.477295,463.864807 568.541870,464.406982 
	C573.105652,473.163605 577.594971,481.777252 582.231812,490.674011 
	C577.809265,492.579468 575.345093,491.818024 573.424561,487.743683 
	C570.167542,480.834351 566.532898,474.090088 562.746155,467.453796 
	C561.954102,466.065674 559.875244,464.745422 558.283813,464.606812 
	C553.818909,464.218018 549.293945,464.587402 544.801941,464.415588 
	C541.594849,464.292908 540.329956,465.484314 540.416870,468.752777 
	C540.580688,474.912628 540.585022,481.085663 540.342102,487.240845 
	C540.283020,488.738068 539.006531,490.187225 537.914795,491.680908 
M556.473999,458.337128 
	C559.458740,458.248962 562.464294,458.353729 565.424255,458.035126 
	C573.191223,457.199158 577.136536,451.985596 577.075073,442.928986 
	C577.017761,434.467896 573.180481,429.572571 565.461060,428.965363 
	C558.365234,428.407166 551.220520,428.497192 544.103943,428.162262 
	C541.003784,428.016388 540.040527,429.360138 540.140076,432.300262 
	C540.302979,437.108398 540.190674,441.925781 540.196411,446.739258 
	C540.210144,458.278656 540.210571,458.278473 551.501221,458.318054 
	C552.829041,458.322693 554.156921,458.330383 556.473999,458.337128 
z"/>
<path fill="#D96667" opacity="1.000000" stroke="none" 
	d="
M238.283188,439.922516 
	C238.657806,430.168457 242.719986,424.953461 251.567535,422.670227 
	C259.017975,420.747559 266.449707,421.066589 273.690948,423.622406 
	C279.058594,425.516998 282.695312,429.288574 283.927917,434.928223 
	C284.165405,436.014801 283.128357,438.426483 282.666595,438.429749 
	C281.064880,438.440979 278.687195,438.173340 277.973053,437.100769 
	C271.718109,427.706268 259.758392,424.468506 249.883469,429.841034 
	C246.136307,431.879730 244.510422,435.193268 244.724365,439.354828 
	C244.952988,443.801849 246.812973,447.640137 250.977097,449.354370 
	C256.023438,451.431793 261.372528,452.775513 266.594940,454.422974 
	C268.810547,455.121887 271.080505,455.670471 273.251404,456.485352 
	C283.039642,460.159607 287.139954,466.355103 286.450928,476.270172 
	C285.899811,484.200989 280.311646,490.253632 270.985352,492.200104 
	C262.893829,493.888885 254.744049,493.736328 246.887619,490.723083 
	C241.763733,488.757904 238.114929,485.202301 236.994781,479.725891 
	C236.730194,478.432343 238.007339,476.823425 238.575272,475.359589 
	C240.176361,476.103271 242.865555,476.529968 243.190475,477.645447 
	C244.611252,482.522766 248.172745,485.147949 252.489822,485.667786 
	C258.470093,486.387970 264.700165,486.491180 270.645508,485.630524 
	C276.484039,484.785339 279.698547,480.187073 279.963196,474.810242 
	C280.230560,469.378296 277.075623,464.352844 271.623993,462.531708 
	C265.000671,460.319214 258.185913,458.684967 251.534515,456.549774 
	C243.707794,454.037231 238.786270,448.958618 238.283188,439.922516 
z"/>
<path fill="#D96565" opacity="1.000000" stroke="none" 
	d="
M613.735107,465.126495 
	C613.725281,470.440704 613.960022,475.286987 613.648865,480.097992 
	C613.383850,484.196136 614.751221,485.693298 618.942688,485.588379 
	C628.432068,485.350983 637.931580,485.523285 647.426941,485.512421 
	C649.766296,485.509766 652.366699,485.030792 652.252930,488.716614 
	C652.152527,491.968536 649.834106,491.724365 647.620911,491.721497 
	C635.626770,491.705933 623.630798,491.585022 611.639648,491.771301 
	C608.041443,491.827209 607.016846,490.437653 607.028992,487.106537 
	C607.101868,467.116638 607.094604,447.126129 607.018250,427.136200 
	C607.005859,423.893646 607.890869,422.208466 611.529480,422.247711 
	C623.688721,422.378876 635.852112,422.194489 648.008728,422.415558 
	C649.450562,422.441772 650.860413,424.227112 652.285095,425.196991 
	C650.793274,426.308411 649.327515,428.338745 647.805298,428.382019 
	C637.985291,428.661224 628.151062,428.611237 618.325684,428.436646 
	C614.905823,428.375854 613.519775,429.475159 613.679260,432.998444 
	C613.897644,437.819397 613.902710,442.666229 613.670349,447.486115 
	C613.496826,451.087280 615.000427,452.048309 618.377258,451.981567 
	C627.202820,451.807098 636.034241,451.904480 644.863159,451.941376 
	C646.948059,451.950073 649.406860,451.432495 649.308472,454.947784 
	C649.214905,458.294556 646.928406,457.939056 644.764160,457.939301 
	C636.601440,457.940186 628.438721,457.925262 620.276062,457.944824 
	C613.747864,457.960449 613.747925,457.978821 613.735107,465.126495 
z"/>
<path fill="#D86262" opacity="1.000000" stroke="none" 
	d="
M201.974609,422.319580 
	C204.967926,422.307617 207.539963,421.933716 209.938812,422.417847 
	C211.395691,422.711884 212.585007,424.331757 213.894531,425.356079 
	C212.568222,426.404114 211.264938,428.324280 209.911911,428.360046 
	C200.422684,428.610596 190.913834,428.718140 181.430878,428.356995 
	C176.519470,428.169983 174.926895,429.871948 175.319733,434.627869 
	C175.675095,438.930267 175.516907,443.289856 175.353592,447.615448 
	C175.230865,450.866333 176.545853,452.022522 179.763748,451.982300 
	C189.902069,451.855652 200.042969,451.935638 210.746445,451.935638 
	C210.842819,453.897491 210.925552,455.581696 211.041153,457.935120 
	C200.863708,457.935120 191.226517,458.267792 181.627945,457.803009 
	C176.368240,457.548340 174.961121,459.295746 175.315109,464.260498 
	C175.716934,469.896027 175.502228,475.585846 175.351212,481.246582 
	C175.264862,484.484344 176.555847,485.634644 179.765732,485.586914 
	C189.593292,485.440735 199.424133,485.481079 209.253448,485.516602 
	C211.249268,485.523834 213.862244,484.664612 213.912033,488.256622 
	C213.960983,491.789093 211.579269,491.702332 209.144913,491.702057 
	C197.315933,491.700623 185.486267,491.644592 173.658432,491.764435 
	C170.279800,491.798645 168.998810,490.683533 169.022552,487.135895 
	C169.156387,467.144348 169.145126,447.150909 169.009521,427.159302 
	C168.984146,423.420258 170.386200,422.187958 173.991058,422.249268 
	C183.151886,422.405212 192.316940,422.312500 201.974609,422.319580 
z"/>
<path fill="#D96464" opacity="1.000000" stroke="none" 
	d="
M502.676758,484.517822 
	C499.054108,475.687164 499.054108,475.688232 489.832794,475.694763 
	C482.833832,475.699738 475.830475,475.848145 468.838013,475.636536 
	C465.813446,475.544983 464.200592,476.688354 463.276489,479.414490 
	C462.315582,482.249359 461.197906,485.031647 460.125061,487.827820 
	C458.504303,492.052155 458.021851,492.255585 452.483154,490.721619 
	C454.887238,484.360626 457.247101,478.033417 459.667450,471.729462 
	C465.452698,456.661194 471.321259,441.624573 477.016510,426.522522 
	C477.998352,423.919037 479.151184,421.548370 482.156006,422.434113 
	C483.966553,422.967834 486.118073,424.671204 486.793640,426.373810 
	C494.763672,446.459503 502.496704,466.639374 510.238586,486.815002 
	C510.738281,488.117218 510.797974,489.588287 511.059601,490.966461 
	C504.451019,493.333344 504.288818,488.289703 502.676758,484.517822 
M474.727051,469.823639 
	C481.959015,469.823639 489.191010,469.823639 497.234253,469.823639 
	C492.094543,456.356628 487.308167,443.815338 482.006165,429.923126 
	C476.692566,443.953064 471.966156,456.432678 466.893799,469.825684 
	C469.917023,469.825684 471.861603,469.825684 474.727051,469.823639 
z"/>
<path fill="#D96667" opacity="1.000000" stroke="none" 
	d="
M123.108521,467.873291 
	C128.575394,453.539337 133.779434,439.519745 139.358978,425.651215 
	C140.073898,423.874176 142.742432,422.883087 144.505966,421.527893 
	C145.142853,422.026947 145.779739,422.526001 146.416626,423.025055 
	C145.047989,427.132141 143.825348,431.294861 142.285339,435.336639 
	C135.775803,452.420807 129.189804,469.476013 122.583290,486.522980 
	C121.572624,489.130798 120.662857,491.785095 116.910812,491.802551 
	C113.151947,491.820038 112.780014,488.944427 111.867989,486.589081 
	C104.307335,467.063354 96.808792,447.513580 89.325981,427.957855 
	C88.756752,426.470123 88.452347,424.881104 87.988914,423.209534 
	C91.820053,421.460266 93.823219,422.337158 95.185318,425.956696 
	C101.732857,443.355469 108.435120,460.696045 115.099388,478.050751 
	C115.608955,479.377747 116.249908,480.654297 117.311302,483.033722 
	C119.471649,477.375305 121.216644,472.804810 123.108521,467.873291 
z"/>
<path fill="#D45F60" opacity="1.000000" stroke="none" 
	d="
M412.187866,428.547424 
	C411.165039,429.670349 410.156342,430.744568 410.152618,431.822266 
	C410.092499,449.145966 410.158661,466.470093 410.214172,483.794067 
	C410.215149,484.099457 410.438232,484.404083 410.878326,485.527466 
	C415.801910,485.527466 421.052704,485.489319 426.302521,485.545410 
	C428.535614,485.569305 431.233734,484.941956 431.164368,488.731781 
	C431.101532,492.166718 428.728180,491.650787 426.592224,491.651062 
	C412.289978,491.652924 397.987762,491.652069 383.542389,491.652069 
	C381.994446,487.333130 383.045776,485.508820 387.564850,485.751038 
	C391.717651,485.973663 395.918396,486.056061 400.042175,485.642914 
	C401.420502,485.504822 403.734070,483.658844 403.745880,482.573181 
	C403.936066,465.085999 403.825378,447.595551 403.761963,430.105896 
	C403.760895,429.810211 403.499634,429.515411 402.876862,428.200958 
	C398.110931,428.200958 392.833160,428.041748 387.570190,428.252380 
	C383.504150,428.415070 381.869293,427.100403 383.479736,422.764099 
	C399.260040,422.764099 415.114075,422.764099 431.401215,422.764099 
	C431.190247,424.830200 431.029266,426.406464 430.815460,428.500366 
	C424.575073,428.500366 418.622345,428.500366 412.187866,428.547424 
z"/>
<path fill="#DC6767" opacity="1.000000" stroke="none" 
	d="
M351.869659,422.280396 
	C353.512482,422.273499 354.682068,422.335480 355.840759,422.249817 
	C360.082642,421.936127 361.228912,423.900421 359.786316,428.321167 
	C352.554382,428.321167 345.132904,428.321167 336.940002,428.321167 
	C336.940002,430.683807 336.939850,432.443817 336.940033,434.203796 
	C336.942047,451.672852 337.000977,469.142395 336.853638,486.610168 
	C336.839691,488.264709 335.899048,490.972504 334.758850,491.365875 
	C330.652130,492.782715 330.212067,489.886841 330.222168,486.652008 
	C330.275604,469.515900 330.251587,452.379486 330.242401,435.243195 
	C330.238770,428.488159 330.224579,428.484192 323.438751,428.498749 
	C319.446136,428.507324 315.453369,428.517914 311.460907,428.552765 
	C309.268890,428.571899 306.470490,428.817657 307.144348,425.613556 
	C307.430573,424.252411 309.937897,422.431549 311.464935,422.403473 
	C324.770020,422.158813 338.081696,422.273560 351.869659,422.280396 
z"/>
<path fill="#D27072" opacity="1.000000" stroke="none" 
	d="
M627.484009,415.160980 
	C629.143188,411.351074 630.544189,407.753723 632.536316,404.520630 
	C633.482300,402.985413 635.555847,402.145020 637.118530,400.989838 
	C637.660461,401.484375 638.202454,401.978912 638.744446,402.473419 
	C636.707642,406.896423 634.857361,411.426178 632.447388,415.635529 
	C632.053772,416.322906 629.190369,415.596161 627.484009,415.160980 
z"/>
<path fill="#FEF9F9" opacity="1.000000" stroke="none" 
	d="
M381.080444,325.016296 
	C378.110748,332.560944 375.284515,339.746674 371.877075,348.410065 
	C362.909180,326.379333 354.544434,305.830292 346.143829,285.193176 
	C359.751007,281.083984 385.424164,281.507202 396.459839,285.943115 
	C391.384277,298.840057 386.304108,311.748718 381.080444,325.016296 
z"/>
<path fill="#FEF9F8" opacity="1.000000" stroke="none" 
	d="
M555.979370,458.336884 
	C554.156921,458.330383 552.829041,458.322693 551.501221,458.318054 
	C540.210571,458.278473 540.210144,458.278656 540.196411,446.739258 
	C540.190674,441.925781 540.302979,437.108398 540.140076,432.300262 
	C540.040527,429.360138 541.003784,428.016388 544.103943,428.162262 
	C551.220520,428.497192 558.365234,428.407166 565.461060,428.965363 
	C573.180481,429.572571 577.017761,434.467896 577.075073,442.928986 
	C577.136536,451.985596 573.191223,457.199158 565.424255,458.035126 
	C562.464294,458.353729 559.458740,458.248962 555.979370,458.336884 
z"/>
<path fill="#FEF5F4" opacity="1.000000" stroke="none" 
	d="
M474.266632,469.824646 
	C471.861603,469.825684 469.917023,469.825684 466.893799,469.825684 
	C471.966156,456.432678 476.692566,443.953064 482.006165,429.923126 
	C487.308167,443.815338 492.094543,456.356628 497.234253,469.823639 
	C489.191010,469.823639 481.959015,469.823639 474.266632,469.824646 
z"/>
</svg>